# xmcd CD database file
#
# Track frame offsets:
#	150
#	25709
#	43079
#	68651
#	102199
#
# Disc length: 1885 seconds
#
# Revision: 0
# Processed by: cddbd v1.5.2PL0 Copyright (c) Steve Scherf et al.
# Submitted via: CDex 1.51
#
DISCID=36075b05
DTITLE=Jeff Alkire - Another Day
DYEAR=2006
DGENRE=Jazz
TTITLE0=Windows
TTITLE1=Another Day
TTITLE2=Fruit Bat
TTITLE3=Mezzo
TTITLE4=In Your Own Sweet Way
EXTD=YEAR: 2006
EXTT0=
EXTT1=
EXTT2=
EXTT3=
EXTT4=
PLAYORDER=
